{
  "accessors": [
    {
      "bufferView": 2,
      "componentType": 5126,
      "count": 8280,
      "max": [
        0.7946720123291016,
        0.2428790032863617,
        0.7944009900093079
      ],
      "min": [
        -0.7946720123291016,
        -0.24266700446605682,
        -0.7944589853286743
      ],
      "type": "VEC3"
    },
    {
      "bufferView": 2,
      "byteOffset": 99360,
      "componentType": 5126,
      "count": 8280,
      "max": [
        0.9999995827674866,
        0.9999926686286926,
        0.9999918937683105
      ],
      "min": [
        -0.9999995827674866,
        -0.9999927878379822,
        -0.9999980926513672
      ],
      "type": "VEC3"
    },
    {
      "bufferView": 1,
      "componentType": 5126,
      "count": 8280,
      "max": [
        0.0,
        1.0
      ],
      "min": [
        0.0,
        1.0
      ],
      "type": "VEC2"
    },
    {
      "bufferView": 0,
      "componentType": 5125,
      "count": 48960,
      "type": "SCALAR"
    },
    {
      "bufferView": 2,
      "byteOffset": 198720,
      "componentType": 5126,
      "count": 6440,
      "max": [
        0.8357800245285034,
        0.3616180121898651,
        0.8357399702072144
      ],
      "min": [
        -0.8357530236244202,
        -0.3614700138568878,
        -0.835552990436554
      ],
      "type": "VEC3"
    },
    {
      "bufferView": 2,
      "byteOffset": 276000,
      "componentType": 5126,
      "count": 6440,
      "max": [
        0.9999991059303284,
        0.999983549118042,
        0.9999494552612305
      ],
      "min": [
        -0.9999991059303284,
        -0.9999836683273315,
        -0.999995768070221
      ],
      "type": "VEC3"
    },
    {
      "bufferView": 1,
      "byteOffset": 66240,
      "componentType": 5126,
      "count": 6440,
      "max": [
        0.0,
        1.0
      ],
      "min": [
        0.0,
        1.0
      ],
      "type": "VEC2"
    },
    {
      "bufferView": 0,
      "byteOffset": 195840,
      "componentType": 5125,
      "count": 37224,
      "type": "SCALAR"
    },
    {
      "bufferView": 2,
      "byteOffset": 353280,
      "componentType": 5126,
      "count": 5474,
      "max": [
        0.8778769969940186,
        0.49332499504089355,
        0.8778809905052185
      ],
      "min": [
        -0.8776990175247192,
        -0.49351298809051514,
        -0.8773249983787537
      ],
      "type": "VEC3"
    },
    {
      "bufferView": 2,
      "byteOffset": 418968,
      "componentType": 5126,
      "count": 5474,
      "max": [
        0.9999984502792358,
        0.9999704957008362,
        0.9999768137931824
      ],
      "min": [
        -0.9999984502792358,
        -0.9999708533287048,
        -0.9999923706054688
      ],
      "type": "VEC3"
    },
    {
      "bufferView": 1,
      "byteOffset": 117760,
      "componentType": 5126,
      "count": 5474,
      "max": [
        0.0,
        1.0
      ],
      "min": [
        0.0,
        1.0
      ],
      "type": "VEC2"
    },
    {
      "bufferView": 0,
      "byteOffset": 344736,
      "componentType": 5125,
      "count": 30096,
      "type": "SCALAR"
    },
    {
      "bufferView": 2,
      "byteOffset": 484656,
      "componentType": 5126,
      "count": 3989,
      "max": [
        0.9218710064888,
        0.6436690092086792,
        0.9214329719543457
      ],
      "min": [
        -0.9215430021286011,
        -0.6428700089454651,
        -0.9215070009231567
      ],
      "type": "VEC3"
    },
    {
      "bufferView": 2,
      "byteOffset": 532524,
      "componentType": 5126,
      "count": 3989,
      "max": [
        0.9999934434890747,
        0.9998096227645874,
        0.9997068643569946
      ],
      "min": [
        -0.9999935030937195,
        -0.9998162984848022,
        -0.9999516606330872
      ],
      "type": "VEC3"
    },
    {
      "bufferView": 1,
      "byteOffset": 161552,
      "componentType": 5126,
      "count": 3989,
      "max": [
        0.0,
        1.0
      ],
      "min": [
        0.0,
        1.0
      ],
      "type": "VEC2"
    },
    {
      "bufferView": 0,
      "byteOffset": 465120,
      "componentType": 5125,
      "count": 20232,
      "type": "SCALAR"
    },
    {
      "bufferView": 2,
      "byteOffset": 580392,
      "componentType": 5126,
      "count": 2570,
      "max": [
        0.9695000052452087,
        0.8240000009536743,
        0.9693999886512756
      ],
      "min": [
        -0.9695000052452087,
        -0.8238999843597412,
        -0.9693999886512756
      ],
      "type": "VEC3"
    },
    {
      "bufferView": 2,
      "byteOffset": 611232,
      "componentType": 5126,
      "count": 2570,
      "max": [
        0.9999794363975525,
        0.9999563097953796,
        0.999230146408081
      ],
      "min": [
        -0.9999645352363586,
        -0.9999398589134216,
        -0.9965771436691284
      ],
      "type": "VEC3"
    },
    {
      "bufferView": 1,
      "byteOffset": 193464,
      "componentType": 5126,
      "count": 2570,
      "max": [
        0.0,
        1.0
      ],
      "min": [
        0.0,
        1.0
      ],
      "type": "VEC2"
    },
    {
      "bufferView": 0,
      "byteOffset": 546048,
      "componentType": 5125,
      "count": 15264,
      "type": "SCALAR"
    },
    {
      "bufferView": 2,
      "byteOffset": 642072,
      "componentType": 5126,
      "count": 3482,
      "max": [
        1.0180000066757202,
        1.0180000066757202,
        1.017976999282837
      ],
      "min": [
        -1.0179990530014038,
        -1.0179749727249146,
        -1.0179719924926758
      ],
      "type": "VEC3"
    },
    {
      "bufferView": 2,
      "byteOffset": 683856,
      "componentType": 5126,
      "count": 3482,
      "max": [
        0.9999951124191284,
        0.9999692440032959,
        0.999969482421875
      ],
      "min": [
        -0.9999951124191284,
        -0.9999692440032959,
        -0.9998711347579956
      ],
      "type": "VEC3"
    },
    {
      "bufferView": 1,
      "byteOffset": 214024,
      "componentType": 5126,
      "count": 3482,
      "max": [
        0.0,
        1.0
      ],
      "min": [
        0.0,
        1.0
      ],
      "type": "VEC2"
    },
    {
      "bufferView": 0,
      "byteOffset": 607104,
      "componentType": 5125,
      "count": 20736,
      "type": "SCALAR"
    }
  ],
  "asset": {
    "extras": {
      "author": "dansmath (https://sketchfab.com/dansmath)",
      "license": "CC-BY-4.0 (http://creativecommons.org/licenses/by/4.0/)",
      "source": "https://sketchfab.com/3d-models/saddle-wires-6c9d0a7411f14dd1a02210e6cc19deae",
      "title": "saddle wires"
    },
    "generator": "Sketchfab-16.53.0",
    "version": "2.0"
  },
  "bufferViews": [
    {
      "buffer": 0,
      "byteLength": 690048,
      "name": "floatBufferViews",
      "target": 34963
    },
    {
      "buffer": 0,
      "byteLength": 241880,
      "byteOffset": 690048,
      "byteStride": 8,
      "name": "floatBufferViews",
      "target": 34962
    },
    {
      "buffer": 0,
      "byteLength": 725640,
      "byteOffset": 931928,
      "byteStride": 12,
      "name": "floatBufferViews",
      "target": 34962
    }
  ],
  "buffers": [
    {
      "byteLength": 1657568,
      "uri": "scene.bin"
    }
  ],
  "materials": [
    {
      "doubleSided": true,
      "name": "Material0",
      "pbrMetallicRoughness": {
        "baseColorFactor": [
          0.83989,
          0.150353,
          0.0,
          1.0
        ],
        "metallicFactor": 0.0,
        "roughnessFactor": 0.2
      }
    },
    {
      "doubleSided": true,
      "name": "Material1",
      "pbrMetallicRoughness": {
        "baseColorFactor": [
          0.849764,
          0.421649,
          0.0,
          1.0
        ],
        "metallicFactor": 0.0,
        "roughnessFactor": 0.2
      }
    },
    {
      "doubleSided": true,
      "name": "Material2",
      "pbrMetallicRoughness": {
        "baseColorFactor": [
          0.883136,
          0.898663,
          0.0,
          1.0
        ],
        "metallicFactor": 0.0,
        "roughnessFactor": 0.2
      }
    },
    {
      "doubleSided": true,
      "name": "Material3",
      "pbrMetallicRoughness": {
        "baseColorFactor": [
          0.479136,
          0.90309,
          0.0,
          1.0
        ],
        "metallicFactor": 0.0,
        "roughnessFactor": 0.2
      }
    },
    {
      "doubleSided": true,
      "name": "Material4",
      "pbrMetallicRoughness": {
        "baseColorFactor": [
          0.241336,
          0.898933,
          0.363382,
          1.0
        ],
        "metallicFactor": 0.0,
        "roughnessFactor": 0.2
      }
    },
    {
      "doubleSided": true,
      "name": "Material5",
      "pbrMetallicRoughness": {
        "baseColorFactor": [
          0.225257,
          0.882145,
          0.879077,
          1.0
        ],
        "metallicFactor": 0.0,
        "roughnessFactor": 0.2
      }
    }
  ],
  "meshes": [
    {
      "name": "mat0",
      "primitives": [
        {
          "attributes": {
            "NORMAL": 1,
            "POSITION": 0,
            "TEXCOORD_0": 2
          },
          "indices": 3,
          "material": 5,
          "mode": 4
        }
      ]
    },
    {
      "name": "mat0",
      "primitives": [
        {
          "attributes": {
            "NORMAL": 5,
            "POSITION": 4,
            "TEXCOORD_0": 6
          },
          "indices": 7,
          "material": 4,
          "mode": 4
        }
      ]
    },
    {
      "name": "mat0",
      "primitives": [
        {
          "attributes": {
            "NORMAL": 9,
            "POSITION": 8,
            "TEXCOORD_0": 10
          },
          "indices": 11,
          "material": 3,
          "mode": 4
        }
      ]
    },
    {
      "name": "mat0",
      "primitives": [
        {
          "attributes": {
            "NORMAL": 13,
            "POSITION": 12,
            "TEXCOORD_0": 14
          },
          "indices": 15,
          "material": 2,
          "mode": 4
        }
      ]
    },
    {
      "name": "mat0",
      "primitives": [
        {
          "attributes": {
            "NORMAL": 17,
            "POSITION": 16,
            "TEXCOORD_0": 18
          },
          "indices": 19,
          "material": 1,
          "mode": 4
        }
      ]
    },
    {
      "name": "mat0",
      "primitives": [
        {
          "attributes": {
            "NORMAL": 21,
            "POSITION": 20,
            "TEXCOORD_0": 22
          },
          "indices": 23,
          "material": 0,
          "mode": 4
        }
      ]
    }
  ],
  "nodes": [
    {
      "children": [
        1
      ],
      "matrix": [
        0.8173235058784485,
        -1.2793744454006563e-16,
        0.576179027557373,
        0.0,
        0.576179027557373,
        1.814822749587216e-16,
        -0.8173235058784485,
        0.0,
        0.0,
        1.0,
        2.220446049250313e-16,
        0.0,
        0.0,
        0.0,
        0.0,
        1.0
      ],
      "name": "Sketchfab_model"
    },
    {
      "children": [
        2,
        4,
        6,
        8,
        10,
        12,
        14
      ],
      "matrix": [
        1.0,
        0.0,
        0.0,
        0.0,
        0.0,
        -4.371139006309477e-08,
        0.999999999999999,
        0.0,
        0.0,
        -0.999999999999999,
        -4.371139006309477e-08,
        0.0,
        0.0,
        0.0,
        0.0,
        1.0
      ],
      "name": "Collada visual scene group"
    },
    {
      "children": [
        3
      ],
      "name": "sad5"
    },
    {
      "mesh": 0,
      "name": "mat0"
    },
    {
      "children": [
        5
      ],
      "name": "sad4"
    },
    {
      "mesh": 1,
      "name": "mat0"
    },
    {
      "children": [
        7
      ],
      "name": "sad3"
    },
    {
      "mesh": 2,
      "name": "mat0"
    },
    {
      "children": [
        9
      ],
      "name": "sad2"
    },
    {
      "mesh": 3,
      "name": "mat0"
    },
    {
      "children": [
        11
      ],
      "name": "sad1"
    },
    {
      "mesh": 4,
      "name": "mat0"
    },
    {
      "children": [
        13
      ],
      "name": "sad0"
    },
    {
      "mesh": 5,
      "name": "mat0"
    },
    {
      "children": [
        15
      ],
      "matrix": [
        0.866025,
        0.0,
        -0.5,
        0.0,
        -0.211309,
        0.906308,
        -0.365998,
        0.0,
        0.453154,
        0.422618,
        0.784886,
        0.0,
        1.887283,
        1.618571,
        3.278744,
        1.0
      ],
      "name": "Camera"
    },
    {
      "name": "ID505476272-persp"
    }
  ],
  "scene": 0,
  "scenes": [
    {
      "name": "Sketchfab_Scene",
      "nodes": [
        0
      ]
    }
  ]
}
