{
  "accessors": [
    {
      "bufferView": 1,
      "componentType": 5126,
      "count": 22,
      "max": [
        1.0,
        1.0,
        1.7885899543762207
      ],
      "min": [
        -1.0,
        -1.0,
        -0.001230000052601099
      ],
      "type": "VEC3"
    },
    {
      "bufferView": 1,
      "byteOffset": 264,
      "componentType": 5126,
      "count": 22,
      "max": [
        1.0,
        1.0,
        -0.0
      ],
      "min": [
        -1.0,
        -1.0,
        -1.0
      ],
      "type": "VEC3"
    },
    {
      "bufferView": 0,
      "componentType": 5125,
      "count": 36,
      "type": "SCALAR"
    },
    {
      "bufferView": 1,
      "byteOffset": 528,
      "componentType": 5126,
      "count": 125,
      "max": [
        1.1921099424362183,
        1.1857500076293945,
        1.9974700212478638
      ],
      "min": [
        -1.247920036315918,
        -1.1306300163269043,
        0.8589000105857849
      ],
      "type": "VEC3"
    },
    {
      "bufferView": 1,
      "byteOffset": 2028,
      "componentType": 5126,
      "count": 125,
      "max": [
        1.0,
        0.9999452233314514,
        1.0
      ],
      "min": [
        -1.0,
        -0.9999452233314514,
        -0.7963094115257263
      ],
      "type": "VEC3"
    },
    {
      "bufferView": 0,
      "byteOffset": 144,
      "componentType": 5125,
      "count": 183,
      "type": "SCALAR"
    },
    {
      "bufferView": 1,
      "byteOffset": 3528,
      "componentType": 5126,
      "count": 24,
      "max": [
        0.70933997631073,
        -0.7179399728775024,
        2.1860098838806152
      ],
      "min": [
        0.4092000126838684,
        -1.0180799961090088,
        1.8858699798583984
      ],
      "type": "VEC3"
    },
    {
      "bufferView": 1,
      "byteOffset": 3816,
      "componentType": 5126,
      "count": 24,
      "max": [
        1.0,
        1.0,
        1.0
      ],
      "min": [
        -1.0,
        -1.0,
        -1.0
      ],
      "type": "VEC3"
    },
    {
      "bufferView": 0,
      "byteOffset": 876,
      "componentType": 5125,
      "count": 36,
      "type": "SCALAR"
    }
  ],
  "asset": {
    "extras": {
      "author": "cybergaukler (https://sketchfab.com/craylon)",
      "license": "CC-BY-4.0 (http://creativecommons.org/licenses/by/4.0/)",
      "source": "https://sketchfab.com/3d-models/vrkspace-tag-smarthome-77b50892dcf34a5396b4e5329bdd43f3",
      "title": "VRKSpace-Tag: Smarthome"
    },
    "generator": "Sketchfab-12.68.0",
    "version": "2.0"
  },
  "bufferViews": [
    {
      "buffer": 0,
      "byteLength": 1020,
      "name": "floatBufferViews",
      "target": 34963
    },
    {
      "buffer": 0,
      "byteLength": 4104,
      "byteOffset": 1020,
      "byteStride": 12,
      "name": "floatBufferViews",
      "target": 34962
    }
  ],
  "buffers": [
    {
      "byteLength": 5124,
      "uri": "scene.bin"
    }
  ],
  "extensionsRequired": [
    "KHR_materials_pbrSpecularGlossiness"
  ],
  "extensionsUsed": [
    "KHR_materials_pbrSpecularGlossiness"
  ],
  "materials": [
    {
      "doubleSided": true,
      "extensions": {
        "KHR_materials_pbrSpecularGlossiness": {
          "diffuseFactor": [
            0.7873985767,
            0.7873985767,
            0.7873985767,
            1.0
          ],
          "glossinessFactor": 0.4,
          "specularFactor": [
            0.0,
            0.0,
            0.0
          ]
        }
      },
      "name": "HomeMaterial"
    },
    {
      "doubleSided": true,
      "extensions": {
        "KHR_materials_pbrSpecularGlossiness": {
          "diffuseFactor": [
            0.4200237095,
            0.0254830271,
            0.0106889801,
            1.0
          ],
          "glossinessFactor": 0.4,
          "specularFactor": [
            0.0,
            0.0,
            0.0
          ]
        }
      },
      "name": "RoofMaterial"
    },
    {
      "emissiveFactor": [
        1.0,
        1.0,
        1.0
      ],
      "extensions": {
        "KHR_materials_pbrSpecularGlossiness": {
          "diffuseFactor": [
            0.8000000714999997,
            0.7630472183000002,
            0.3201069236,
            1.0
          ],
          "glossinessFactor": 0.4,
          "specularFactor": [
            0.0,
            0.0,
            0.0
          ]
        }
      },
      "name": "BulbMaterial"
    }
  ],
  "meshes": [
    {
      "name": "Home_0",
      "primitives": [
        {
          "attributes": {
            "NORMAL": 1,
            "POSITION": 0
          },
          "indices": 2,
          "material": 0,
          "mode": 4
        }
      ]
    },
    {
      "name": "Home_1",
      "primitives": [
        {
          "attributes": {
            "NORMAL": 4,
            "POSITION": 3
          },
          "indices": 5,
          "material": 1,
          "mode": 4
        }
      ]
    },
    {
      "name": "Smart_0",
      "primitives": [
        {
          "attributes": {
            "NORMAL": 7,
            "POSITION": 6
          },
          "indices": 8,
          "material": 2,
          "mode": 4
        }
      ]
    }
  ],
  "nodes": [
    {
      "children": [
        1
      ],
      "matrix": [
        1.0,
        0.0,
        0.0,
        0.0,
        0.0,
        2.220446049250313e-16,
        -1.0,
        0.0,
        0.0,
        1.0,
        2.220446049250313e-16,
        0.0,
        0.0,
        0.0,
        0.0,
        1.0
      ],
      "name": "Sketchfab_model"
    },
    {
      "children": [
        2
      ],
      "name": "Root"
    },
    {
      "children": [
        3,
        4,
        5
      ],
      "name": "Home"
    },
    {
      "mesh": 0,
      "name": "Home_0"
    },
    {
      "mesh": 1,
      "name": "Home_1"
    },
    {
      "children": [
        6
      ],
      "name": "Smart"
    },
    {
      "mesh": 2,
      "name": "Smart_0"
    }
  ],
  "scene": 0,
  "scenes": [
    {
      "name": "Sketchfab_Scene",
      "nodes": [
        0
      ]
    }
  ]
}
