{
	"asset":{
		"generator":"Khronos glTF Blender I/O v4.4.56",
		"version":"2.0"
	},
	"scene":0,
	"scenes":[
		{
			"name":"Scene",
			"nodes":[
				5,
				12,
				18,
				21,
				26,
				27,
				32,
				33,
				37,
				53,
				54
			]
		}
	],
	"nodes":[
		{
			"mesh":0,
			"name":"Object_4"
		},
		{
			"mesh":1,
			"name":"Object_5"
		},
		{
			"children":[
				0,
				1
			],
			"name":"M\ufffd\ufffdlleimer Image Texture_2",
			"scale":[
				1,
				1.0599255561828613,
				1
			]
		},
		{
			"children":[
				2
			],
			"name":"GLTF_SceneRootNode",
			"rotation":[
				0.70710688829422,
				0,
				0,
				0.7071066498756409
			]
		},
		{
			"children":[
				3
			],
			"name":"root"
		},
		{
			"children":[
				4
			],
			"extras":{
				"skein":[
					{
						"bezier_edit::vr_menu::TrashcanMode":{}
					}
				]
			},
			"name":"Trashcan",
			"rotation":[
				0,
				-0.7071068286895752,
				-0.7071067690849304,
				5.338508302088485e-08
			],
			"scale":[
				0.12008272856473923,
				0.12008272856473923,
				0.12008272856473923
			],
			"translation":[
				0.02602015994489193,
				0.34758973121643066,
				0.21314921975135803
			]
		},
		{
			"mesh":2,
			"name":"Cube_Red_0"
		},
		{
			"children":[
				6
			],
			"name":"Cube",
			"scale":[
				99.99999237060547,
				100,
				100
			],
			"translation":[
				-1.0128626854566392e-05,
				2.1071246010251343e-06,
				-9.991343176807277e-06
			]
		},
		{
			"mesh":3,
			"name":"Cube.001_White_0"
		},
		{
			"children":[
				8
			],
			"name":"Cube.001",
			"scale":[
				99.99999237060547,
				100,
				100
			],
			"translation":[
				-1.0128626854566392e-05,
				2.1071246010251343e-06,
				-9.991343176807277e-06
			]
		},
		{
			"children":[
				7,
				9
			],
			"name":"RootNode",
			"translation":[
				-1.0128626854566392e-05,
				2.1071246010251343e-06,
				-9.991343176807277e-06
			]
		},
		{
			"children":[
				10
			],
			"name":"990c7fa7debc413b946016448ebd2879.fbx",
			"rotation":[
				0.70710688829422,
				0,
				0,
				0.7071066498756409
			],
			"scale":[
				0.009999999776482582,
				0.010000001639127731,
				0.010000001639127731
			]
		},
		{
			"children":[
				11
			],
			"extras":{
				"skein":[
					{
						"bezier_edit::vr_menu::MagnetMode":{}
					}
				]
			},
			"name":"Magnet",
			"rotation":[
				0,
				-0.7150975465774536,
				-0.6990246772766113,
				5.2774897341123506e-08
			],
			"scale":[
				0.1531720757484436,
				0.1531720757484436,
				0.1531720757484436
			],
			"translation":[
				-0.4157058000564575,
				0.4123203158378601,
				0.21314921975135803
			]
		},
		{
			"mesh":4,
			"name":"WindowsPlane"
		},
		{
			"children":[
				13
			],
			"name":"MorphMainGroup"
		},
		{
			"children":[
				14
			],
			"name":"Object_3"
		},
		{
			"children":[
				15
			],
			"name":"Object_2",
			"rotation":[
				0.70710688829422,
				0,
				0,
				0.7071066498756409
			]
		},
		{
			"children":[
				16
			],
			"name":"b81f009266604a9d8b0e54a7f0fcdfdc.abc.cleaner.materialmerger.gle"
		},
		{
			"children":[
				17
			],
			"extras":{
				"skein":[
					{
						"bezier_edit::vr_menu::BlocksMode":{}
					}
				]
			},
			"name":"BoxMode",
			"rotation":[
				0,
				0.9999959468841553,
				-0.002850770950317383,
				2.1522339466173435e-10
			],
			"scale":[
				0.11984419822692871,
				0.1198442131280899,
				0.1198442205786705
			],
			"translation":[
				0.8240145444869995,
				0.009406134486198425,
				0.23142948746681213
			]
		},
		{
			"mesh":5,
			"name":"Object_2.001"
		},
		{
			"children":[
				19
			],
			"name":"checkmark.obj.cleaner.materialmerger.gles"
		},
		{
			"children":[
				20
			],
			"extras":{
				"skein":[
					{
						"bezier_edit::vr_menu::CheckmarkMode":{}
					}
				]
			},
			"name":"Checkbox",
			"rotation":[
				0,
				-0.682925820350647,
				-0.7304877042770386,
				5.515028078661999e-08
			],
			"scale":[
				0.043753597885370255,
				0.043753594160079956,
				0.043753594160079956
			],
			"translation":[
				0.046074919402599335,
				-0.04710268974304199,
				0.21314918994903564
			]
		},
		{
			"mesh":6,
			"name":"pPyramid2_lambert1_0",
			"translation":[
				-6.309328455245122e-05,
				0,
				0
			]
		},
		{
			"children":[
				22
			],
			"name":"pPyramid2",
			"translation":[
				-6.309328455245122e-05,
				0,
				0
			]
		},
		{
			"children":[
				23
			],
			"name":"RootNode.001",
			"translation":[
				-6.309328455245122e-05,
				0,
				0
			]
		},
		{
			"children":[
				24
			],
			"name":"f6d447f093844828b9c41e7f6696a3d4.fbx",
			"rotation":[
				0.70710688829422,
				0,
				0,
				0.7071066498756409
			],
			"translation":[
				-2.058128302451223e-06,
				0,
				0
			]
		},
		{
			"children":[
				25
			],
			"extras":{
				"skein":[
					{
						"bezier_edit::vr_menu::PrismMode":{}
					}
				]
			},
			"name":"Prism",
			"rotation":[
				0,
				1,
				0,
				0
			],
			"scale":[
				0.000660200952552259,
				0.000660200952552259,
				0.000660200952552259
			],
			"translation":[
				0.45427972078323364,
				0.008998781442642212,
				0.21314918994903564
			]
		},
		{
			"extras":{
				"skein":[
					{
						"bezier_edit::vr_menu::MinusMode":{}
					}
				]
			},
			"mesh":7,
			"name":"Minus",
			"rotation":[
				0.006058634724467993,
				-0.7070808410644531,
				-0.006058396305888891,
				0.7070808410644531
			],
			"scale":[
				-0.09506203234195709,
				-0.0950620248913765,
				-0.09506203234195709
			],
			"translation":[
				0.4492378234863281,
				-0.4072597026824951,
				0.21314916014671326
			]
		},
		{
			"mesh":8,
			"name":"Cylinder_Material.001_0"
		},
		{
			"children":[
				28
			],
			"name":"Cylinder",
			"rotation":[
				-0.6532815098762512,
				0.27059805393218994,
				-0.27059805393218994,
				0.6532815098762512
			],
			"scale":[
				28.70758056640625,
				28.707584381103516,
				28.70758056640625
			],
			"translation":[
				-3.509907855914207e-06,
				167.56350708007812,
				-1.7586331523489207e-05
			]
		},
		{
			"children":[
				29
			],
			"name":"RootNode.002",
			"translation":[
				-8.726096893951762e-06,
				-7.939106581034139e-06,
				-1.6066931493696757e-05
			]
		},
		{
			"children":[
				30
			],
			"name":"3e7fc9b8b87845728f6eb11da1880095.fbx",
			"rotation":[
				0.70710688829422,
				0,
				0,
				0.7071066498756409
			],
			"scale":[
				0.009999999776482582,
				0.009999999776482582,
				0.009999999776482582
			]
		},
		{
			"children":[
				31
			],
			"extras":{
				"skein":[
					{
						"bezier_edit::vr_menu::PencilMode":{}
					}
				]
			},
			"name":"Pencil",
			"rotation":[
				0,
				-0.7071068286895752,
				-0.7071067690849304,
				5.338508302088485e-08
			],
			"scale":[
				0.11693916469812393,
				0.11693916469812393,
				0.11693916469812393
			],
			"translation":[
				-0.41284146904945374,
				-0.16876477003097534,
				0.21314917504787445
			]
		},
		{
			"extras":{
				"skein":[
					{
						"bezier_edit::vr_menu::PlusMode":{}
					}
				]
			},
			"mesh":9,
			"name":"Plus",
			"rotation":[
				0.5,
				0.5000000596046448,
				-0.5000000596046448,
				0.5000000596046448
			],
			"scale":[
				0.08989710360765457,
				0.08989710360765457,
				0.08989710360765457
			],
			"translation":[
				-0.4184253215789795,
				-0.3878171443939209,
				0.21314916014671326
			]
		},
		{
			"mesh":10,
			"name":"defaultMaterial"
		},
		{
			"children":[
				34
			],
			"name":"Instant",
			"rotation":[
				-0.70710688829422,
				0,
				0,
				0.7071066498756409
			],
			"scale":[
				100,
				99.99999237060547,
				99.99999237060547
			],
			"translation":[
				4.392978098621825e-06,
				0,
				0
			]
		},
		{
			"children":[
				35
			],
			"name":"Collada visual scene group",
			"rotation":[
				0.70710688829422,
				0,
				0,
				0.7071066498756409
			],
			"translation":[
				4.392977643874474e-06,
				0,
				0
			]
		},
		{
			"children":[
				36
			],
			"extras":{
				"skein":[
					{
						"bezier_edit::vr_menu::CameraMode":{}
					}
				]
			},
			"name":"Camera",
			"rotation":[
				-0.7071067690849304,
				0,
				0,
				0.7071068286895752
			],
			"scale":[
				0.012186707928776741,
				0.012186706997454166,
				0.012186706997454166
			],
			"translation":[
				-0.9170961380004883,
				0.03431218862533569,
				0.2955198585987091
			]
		},
		{
			"name":"ID505476272-persp"
		},
		{
			"children":[
				38
			],
			"name":"Camera.001",
			"rotation":[
				-0.20906448364257812,
				0.252684086561203,
				0.0560186505317688,
				0.943029522895813
			],
			"translation":[
				1.8872828483581543,
				1.6185704469680786,
				3.2787439823150635
			]
		},
		{
			"mesh":11,
			"name":"mat0.005"
		},
		{
			"children":[
				40
			],
			"name":"sad0"
		},
		{
			"mesh":12,
			"name":"mat0.004"
		},
		{
			"children":[
				42
			],
			"name":"sad1"
		},
		{
			"mesh":13,
			"name":"mat0.003"
		},
		{
			"children":[
				44
			],
			"name":"sad2"
		},
		{
			"mesh":14,
			"name":"mat0.002"
		},
		{
			"children":[
				46
			],
			"name":"sad3"
		},
		{
			"mesh":15,
			"name":"mat0.001"
		},
		{
			"children":[
				48
			],
			"name":"sad4"
		},
		{
			"mesh":16,
			"name":"mat0"
		},
		{
			"children":[
				50
			],
			"name":"sad5"
		},
		{
			"children":[
				39,
				41,
				43,
				45,
				47,
				49,
				51
			],
			"name":"Collada visual scene group.001",
			"rotation":[
				0.70710688829422,
				0,
				0,
				0.7071066498756409
			]
		},
		{
			"children":[
				52
			],
			"extras":{
				"skein":[
					{
						"bezier_edit::vr_menu::CurvatureMode":{}
					}
				]
			},
			"name":"Curves",
			"rotation":[
				-0.22424395382404327,
				0.7072864770889282,
				0.6390678286552429,
				0.20261521637439728
			],
			"scale":[
				0.13540484011173248,
				0.13540484011173248,
				0.1354048252105713
			],
			"translation":[
				0.4734702706336975,
				0.5019475221633911,
				0.21314924955368042
			]
		},
		{
			"extras":{
				"skein":[
					{
						"bezier_edit::vr_menu::EvaluationMode":{}
					}
				]
			},
			"mesh":17,
			"name":"EvalMode",
			"rotation":[
				0,
				0.7071068286895752,
				-0.7071068286895752,
				1.0677018025262441e-07
			],
			"scale":[
				-0.13543546199798584,
				-0.13543546199798584,
				-0.13543546199798584
			],
			"translation":[
				0.03031449019908905,
				-0.40428149700164795,
				0.21314916014671326
			]
		}
	],
	"animations":[
		{
			"channels":[
				{
					"sampler":0,
					"target":{
						"node":13,
						"path":"weights"
					}
				}
			],
			"name":"anim",
			"samplers":[
				{
					"input":116,
					"interpolation":"LINEAR",
					"output":117
				}
			]
		}
	],
	"materials":[
		{
			"doubleSided":true,
			"name":"Mlleimer_Boden",
			"pbrMetallicRoughness":{
				"baseColorFactor":[
					0.03740520030260086,
					0.03740520030260086,
					0.03740520030260086,
					1
				],
				"roughnessFactor":0.39361700415611267
			}
		},
		{
			"alphaMode":"BLEND",
			"doubleSided":true,
			"name":"Mlleimer_Gitter_2",
			"normalTexture":{
				"index":0
			},
			"pbrMetallicRoughness":{
				"baseColorFactor":[
					0.006664520129561424,
					0.006664520129561424,
					0.006664520129561424,
					1
				],
				"baseColorTexture":{
					"index":1
				},
				"metallicRoughnessTexture":{
					"index":2
				}
			}
		},
		{
			"doubleSided":true,
			"name":"material",
			"pbrMetallicRoughness":{
				"baseColorFactor":[
					1,
					0,
					0,
					1
				],
				"metallicFactor":0,
				"roughnessFactor":0.9524611830711365
			}
		},
		{
			"doubleSided":true,
			"name":"White",
			"pbrMetallicRoughness":{
				"baseColorFactor":[
					0.800000011920929,
					0.800000011920929,
					0.800000011920929,
					1
				],
				"metallicFactor":0,
				"roughnessFactor":0.8211145401000977
			}
		},
		{
			"name":"WindowsPlane",
			"pbrMetallicRoughness":{
				"baseColorFactor":[
					0.800000011920929,
					0.800000011920929,
					0.800000011920929,
					1
				],
				"metallicFactor":0,
				"roughnessFactor":0
			}
		},
		{
			"doubleSided":true,
			"name":"Material.001",
			"pbrMetallicRoughness":{
				"baseColorFactor":[
					0.007796999998390675,
					0.800000011920929,
					0,
					1
				],
				"metallicFactor":0,
				"roughnessFactor":0.788031816482544
			}
		},
		{
			"doubleSided":true,
			"name":"lambert1",
			"pbrMetallicRoughness":{
				"baseColorFactor":[
					0.5,
					0.5,
					0.5,
					1
				],
				"metallicFactor":0,
				"roughnessFactor":0.6000000238418579
			}
		},
		{
			"doubleSided":true,
			"name":"Material.002",
			"pbrMetallicRoughness":{
				"baseColorFactor":[
					0.7502588033676147,
					0,
					0.00290529802441597,
					1
				],
				"metallicFactor":0,
				"roughnessFactor":0.5
			}
		},
		{
			"doubleSided":true,
			"emissiveFactor":[
				0.10000000149011612,
				0.10000000149011612,
				0.10000000149011612
			],
			"emissiveTexture":{
				"index":3
			},
			"name":"Material.003",
			"pbrMetallicRoughness":{
				"baseColorTexture":{
					"index":4
				},
				"metallicFactor":0,
				"metallicRoughnessTexture":{
					"index":5
				}
			}
		},
		{
			"doubleSided":true,
			"name":"Material.004",
			"pbrMetallicRoughness":{
				"baseColorFactor":[
					0,
					0.7504748106002808,
					0.0002913809148594737,
					1
				],
				"metallicFactor":0,
				"roughnessFactor":0.5
			}
		},
		{
			"alphaMode":"BLEND",
			"doubleSided":true,
			"name":"Instant_camera_material",
			"normalTexture":{
				"index":6
			},
			"occlusionTexture":{
				"index":7
			},
			"pbrMetallicRoughness":{
				"baseColorTexture":{
					"index":8
				},
				"metallicRoughnessTexture":{
					"index":7
				}
			}
		},
		{
			"doubleSided":true,
			"name":"Material0",
			"pbrMetallicRoughness":{
				"baseColorFactor":[
					0.8398900032043457,
					0.15035299956798553,
					0,
					1
				],
				"metallicFactor":0,
				"roughnessFactor":0.20000000298023224
			}
		},
		{
			"doubleSided":true,
			"name":"Material1",
			"pbrMetallicRoughness":{
				"baseColorFactor":[
					0.8497639894485474,
					0.4216490089893341,
					0,
					1
				],
				"metallicFactor":0,
				"roughnessFactor":0.20000000298023224
			}
		},
		{
			"doubleSided":true,
			"name":"Material2",
			"pbrMetallicRoughness":{
				"baseColorFactor":[
					0.883135974407196,
					0.8986629843711853,
					0,
					1
				],
				"metallicFactor":0,
				"roughnessFactor":0.20000000298023224
			}
		},
		{
			"doubleSided":true,
			"name":"Material3",
			"pbrMetallicRoughness":{
				"baseColorFactor":[
					0.47913599014282227,
					0.9030900001525879,
					0,
					1
				],
				"metallicFactor":0,
				"roughnessFactor":0.20000000298023224
			}
		},
		{
			"doubleSided":true,
			"name":"Material4",
			"pbrMetallicRoughness":{
				"baseColorFactor":[
					0.24133600294589996,
					0.8989329934120178,
					0.3633820116519928,
					1
				],
				"metallicFactor":0,
				"roughnessFactor":0.20000000298023224
			}
		},
		{
			"doubleSided":true,
			"name":"Material5",
			"pbrMetallicRoughness":{
				"baseColorFactor":[
					0.2252569943666458,
					0.8821449875831604,
					0.8790770173072815,
					1
				],
				"metallicFactor":0,
				"roughnessFactor":0.20000000298023224
			}
		},
		{
			"doubleSided":true,
			"name":"Material.006",
			"pbrMetallicRoughness":{
				"baseColorFactor":[
					0,
					0,
					0,
					1
				],
				"metallicFactor":0,
				"roughnessFactor":0.5
			}
		}
	],
	"meshes":[
		{
			"name":"Object_0",
			"primitives":[
				{
					"attributes":{
						"POSITION":0,
						"NORMAL":1,
						"TEXCOORD_0":2
					},
					"indices":3,
					"material":0
				}
			]
		},
		{
			"name":"Object_1",
			"primitives":[
				{
					"attributes":{
						"POSITION":4,
						"NORMAL":5,
						"TEXCOORD_0":6
					},
					"indices":7,
					"material":1
				}
			]
		},
		{
			"name":"Cube_Red_0",
			"primitives":[
				{
					"attributes":{
						"POSITION":8,
						"NORMAL":9,
						"TEXCOORD_0":10
					},
					"indices":11,
					"material":2
				}
			]
		},
		{
			"name":"Cube.001_White_0",
			"primitives":[
				{
					"attributes":{
						"POSITION":12,
						"NORMAL":13,
						"TEXCOORD_0":14
					},
					"indices":15,
					"material":3
				}
			]
		},
		{
			"extras":{
				"targetNames":[
					"target_0",
					"target_1",
					"target_2",
					"target_3",
					"target_4",
					"target_5",
					"target_6",
					"target_7",
					"target_8",
					"target_9",
					"target_10",
					"target_11",
					"target_12",
					"target_13",
					"target_14",
					"target_15",
					"target_16",
					"target_17",
					"target_18",
					"target_19",
					"target_20",
					"target_21"
				]
			},
			"name":"WindowsPlane",
			"primitives":[
				{
					"attributes":{
						"POSITION":16,
						"NORMAL":17,
						"COLOR_0":18
					},
					"indices":19,
					"material":4,
					"targets":[
						{
							"POSITION":20,
							"NORMAL":21
						},
						{
							"POSITION":22,
							"NORMAL":23
						},
						{
							"POSITION":24,
							"NORMAL":25
						},
						{
							"POSITION":26,
							"NORMAL":27
						},
						{
							"POSITION":28,
							"NORMAL":29
						},
						{
							"POSITION":30,
							"NORMAL":31
						},
						{
							"POSITION":32,
							"NORMAL":33
						},
						{
							"POSITION":34,
							"NORMAL":35
						},
						{
							"POSITION":36,
							"NORMAL":37
						},
						{
							"POSITION":38,
							"NORMAL":39
						},
						{
							"POSITION":40,
							"NORMAL":41
						},
						{
							"POSITION":42,
							"NORMAL":43
						},
						{
							"POSITION":44,
							"NORMAL":45
						},
						{
							"POSITION":46,
							"NORMAL":47
						},
						{
							"POSITION":48,
							"NORMAL":49
						},
						{
							"POSITION":50,
							"NORMAL":51
						},
						{
							"POSITION":52,
							"NORMAL":53
						},
						{
							"POSITION":54,
							"NORMAL":55
						},
						{
							"POSITION":56,
							"NORMAL":57
						},
						{
							"POSITION":58,
							"NORMAL":59
						},
						{
							"POSITION":60,
							"NORMAL":61
						},
						{
							"POSITION":62,
							"NORMAL":63
						}
					]
				}
			],
			"weights":[
				0,
				0,
				0,
				0,
				0,
				0,
				0,
				0,
				0,
				0,
				0,
				0,
				0,
				0,
				0,
				0,
				0,
				0,
				0,
				0,
				0,
				0
			]
		},
		{
			"name":"Object_0.001",
			"primitives":[
				{
					"attributes":{
						"POSITION":64,
						"NORMAL":65,
						"TEXCOORD_0":66
					},
					"indices":67,
					"material":5
				}
			]
		},
		{
			"name":"pPyramid2_lambert1_0",
			"primitives":[
				{
					"attributes":{
						"POSITION":68,
						"NORMAL":69,
						"TEXCOORD_0":70
					},
					"indices":71,
					"material":6
				}
			]
		},
		{
			"name":"Cube.001",
			"primitives":[
				{
					"attributes":{
						"POSITION":72,
						"NORMAL":73,
						"TEXCOORD_0":74
					},
					"indices":75,
					"material":7
				}
			]
		},
		{
			"name":"Cylinder_Material.001_0",
			"primitives":[
				{
					"attributes":{
						"POSITION":76,
						"NORMAL":77,
						"TEXCOORD_0":78
					},
					"indices":79,
					"material":8
				}
			]
		},
		{
			"name":"Cube.002",
			"primitives":[
				{
					"attributes":{
						"POSITION":80,
						"NORMAL":81,
						"TEXCOORD_0":82
					},
					"indices":83,
					"material":9
				}
			]
		},
		{
			"name":"defaultMaterial",
			"primitives":[
				{
					"attributes":{
						"POSITION":84,
						"NORMAL":85,
						"TEXCOORD_0":86
					},
					"indices":87,
					"material":10
				}
			]
		},
		{
			"name":"mat0.005",
			"primitives":[
				{
					"attributes":{
						"POSITION":88,
						"NORMAL":89,
						"TEXCOORD_0":90
					},
					"indices":91,
					"material":11
				}
			]
		},
		{
			"name":"mat0.004",
			"primitives":[
				{
					"attributes":{
						"POSITION":92,
						"NORMAL":93,
						"TEXCOORD_0":94
					},
					"indices":95,
					"material":12
				}
			]
		},
		{
			"name":"mat0.003",
			"primitives":[
				{
					"attributes":{
						"POSITION":96,
						"NORMAL":97,
						"TEXCOORD_0":98
					},
					"indices":99,
					"material":13
				}
			]
		},
		{
			"name":"mat0.002",
			"primitives":[
				{
					"attributes":{
						"POSITION":100,
						"NORMAL":101,
						"TEXCOORD_0":102
					},
					"indices":103,
					"material":14
				}
			]
		},
		{
			"name":"mat0.001",
			"primitives":[
				{
					"attributes":{
						"POSITION":104,
						"NORMAL":105,
						"TEXCOORD_0":106
					},
					"indices":107,
					"material":15
				}
			]
		},
		{
			"name":"mat0",
			"primitives":[
				{
					"attributes":{
						"POSITION":108,
						"NORMAL":109,
						"TEXCOORD_0":110
					},
					"indices":111,
					"material":16
				}
			]
		},
		{
			"name":"Sphere",
			"primitives":[
				{
					"attributes":{
						"POSITION":112,
						"NORMAL":113,
						"TEXCOORD_0":114
					},
					"indices":115,
					"material":17
				}
			]
		}
	],
	"textures":[
		{
			"sampler":0,
			"source":0
		},
		{
			"sampler":0,
			"source":1
		},
		{
			"sampler":0,
			"source":2
		},
		{
			"sampler":0,
			"source":3
		},
		{
			"sampler":0,
			"source":3
		},
		{
			"sampler":0,
			"source":4
		},
		{
			"sampler":0,
			"source":5
		},
		{
			"sampler":0,
			"source":6
		},
		{
			"sampler":0,
			"source":7
		}
	],
	"images":[
		{
			"mimeType":"image/jpeg",
			"name":"Mlleimer_Gitter_2_normal",
			"uri":"Mlleimer_Gitter_2_normal.jpg"
		},
		{
			"mimeType":"image/png",
			"name":"Mlleimer_Gitter_2_baseColor",
			"uri":"Mlleimer_Gitter_2_baseColor.png"
		},
		{
			"mimeType":"image/png",
			"name":"Mlleimer_Gitter_2_metallicRoughness",
			"uri":"Mlleimer_Gitter_2_metallicRoughness.png"
		},
		{
			"mimeType":"image/jpeg",
			"name":"Material.001_baseColor",
			"uri":"Material_001_baseColor.jpg"
		},
		{
			"mimeType":"image/png",
			"name":"Material.001_metallicRoughness",
			"uri":"Material_001_metallicRoughness.png"
		},
		{
			"mimeType":"image/png",
			"name":"Instant_camera_material_normal",
			"uri":"Instant_camera_material_normal.png"
		},
		{
			"mimeType":"image/png",
			"name":"Instant_camera_material_metallicRoughness",
			"uri":"Instant_camera_material_metallicRoughness.png"
		},
		{
			"mimeType":"image/png",
			"name":"Instant_camera_material_baseColor",
			"uri":"Instant_camera_material_baseColor.png"
		}
	],
	"accessors":[
		{
			"bufferView":0,
			"componentType":5126,
			"count":1030,
			"max":[
				1.5073919296264648,
				3.2469987869262695,
				1.5073919296264648
			],
			"min":[
				-1.5073930025100708,
				-0.02324645221233368,
				-1.5073930025100708
			],
			"type":"VEC3"
		},
		{
			"bufferView":1,
			"componentType":5126,
			"count":1030,
			"type":"VEC3"
		},
		{
			"bufferView":2,
			"componentType":5126,
			"count":1030,
			"type":"VEC2"
		},
		{
			"bufferView":3,
			"componentType":5123,
			"count":3636,
			"type":"SCALAR"
		},
		{
			"bufferView":4,
			"componentType":5126,
			"count":66,
			"max":[
				1.4445065259933472,
				3.2008140087127686,
				1.4445065259933472
			],
			"min":[
				-1.4445074796676636,
				0.10272282361984253,
				-1.4445074796676636
			],
			"type":"VEC3"
		},
		{
			"bufferView":5,
			"componentType":5126,
			"count":66,
			"type":"VEC3"
		},
		{
			"bufferView":6,
			"componentType":5126,
			"count":66,
			"type":"VEC2"
		},
		{
			"bufferView":7,
			"componentType":5123,
			"count":192,
			"type":"SCALAR"
		},
		{
			"bufferView":8,
			"componentType":5126,
			"count":176,
			"max":[
				1.0457746982574463,
				1.5985914468765259,
				0.25
			],
			"min":[
				-1.0457746982574463,
				-0.25,
				-0.25
			],
			"type":"VEC3"
		},
		{
			"bufferView":9,
			"componentType":5126,
			"count":176,
			"type":"VEC3"
		},
		{
			"bufferView":10,
			"componentType":5126,
			"count":176,
			"type":"VEC2"
		},
		{
			"bufferView":11,
			"componentType":5123,
			"count":480,
			"type":"SCALAR"
		},
		{
			"bufferView":12,
			"componentType":5126,
			"count":40,
			"max":[
				1.0457746982574463,
				1.999999761581421,
				0.25
			],
			"min":[
				-1.0457746982574463,
				1.5985913276672363,
				-0.25
			],
			"type":"VEC3"
		},
		{
			"bufferView":13,
			"componentType":5126,
			"count":40,
			"type":"VEC3"
		},
		{
			"bufferView":14,
			"componentType":5126,
			"count":40,
			"type":"VEC2"
		},
		{
			"bufferView":15,
			"componentType":5123,
			"count":60,
			"type":"SCALAR"
		},
		{
			"bufferView":16,
			"componentType":5126,
			"count":2416,
			"max":[
				0.7043461799621582,
				0.22966891527175903,
				0.9999999403953552
			],
			"min":[
				-2.636461019515991,
				-0.12335282564163208,
				-1.0000113248825073
			],
			"type":"VEC3"
		},
		{
			"bufferView":17,
			"componentType":5126,
			"count":2416,
			"type":"VEC3"
		},
		{
			"bufferView":18,
			"componentType":5126,
			"count":2416,
			"type":"VEC3"
		},
		{
			"bufferView":19,
			"componentType":5123,
			"count":5556,
			"type":"SCALAR"
		},
		{
			"bufferView":20,
			"componentType":5126,
			"count":2416,
			"max":[
				1.1920928955078125e-07,
				0.06097372621297836,
				1.1920928955078125e-07
			],
			"min":[
				-2.384185791015625e-07,
				-0.06179787218570709,
				-1.1920928955078125e-07
			],
			"type":"VEC3"
		},
		{
			"componentType":5126,
			"count":2416,
			"sparse":{
				"count":1020,
				"indices":{
					"bufferView":21,
					"componentType":5123
				},
				"values":{
					"bufferView":22
				}
			},
			"type":"VEC3"
		},
		{
			"bufferView":23,
			"componentType":5126,
			"count":2416,
			"max":[
				2.384185791015625e-07,
				0.1199241429567337,
				2.384185791015625e-07
			],
			"min":[
				-2.384185791015625e-07,
				-0.12052011489868164,
				-1.7881393432617188e-07
			],
			"type":"VEC3"
		},
		{
			"componentType":5126,
			"count":2416,
			"sparse":{
				"count":1020,
				"indices":{
					"bufferView":24,
					"componentType":5123
				},
				"values":{
					"bufferView":25
				}
			},
			"type":"VEC3"
		},
		{
			"bufferView":26,
			"componentType":5126,
			"count":2416,
			"max":[
				3.5762786865234375e-07,
				0.17354334890842438,
				2.980232238769531e-07
			],
			"min":[
				-2.682209014892578e-07,
				-0.17359213531017303,
				-2.980232238769531e-07
			],
			"type":"VEC3"
		},
		{
			"componentType":5126,
			"count":2416,
			"sparse":{
				"count":1020,
				"indices":{
					"bufferView":27,
					"componentType":5123
				},
				"values":{
					"bufferView":28
				}
			},
			"type":"VEC3"
		},
		{
			"bufferView":29,
			"componentType":5126,
			"count":2416,
			"max":[
				3.5762786865234375e-07,
				0.21882569789886475,
				3.5762786865234375e-07
			],
			"min":[
				-4.76837158203125e-07,
				-0.21836988627910614,
				-3.5762786865234375e-07
			],
			"type":"VEC3"
		},
		{
			"componentType":5126,
			"count":2416,
			"sparse":{
				"count":1020,
				"indices":{
					"bufferView":30,
					"componentType":5123
				},
				"values":{
					"bufferView":31
				}
			},
			"type":"VEC3"
		},
		{
			"bufferView":32,
			"componentType":5126,
			"count":2416,
			"max":[
				3.5762786865234375e-07,
				0.2514815926551819,
				3.5762786865234375e-07
			],
			"min":[
				-4.76837158203125e-07,
				-0.24076031148433685,
				-3.5762786865234375e-07
			],
			"type":"VEC3"
		},
		{
			"componentType":5126,
			"count":2416,
			"sparse":{
				"count":1020,
				"indices":{
					"bufferView":33,
					"componentType":5123
				},
				"values":{
					"bufferView":34
				}
			},
			"type":"VEC3"
		},
		{
			"bufferView":35,
			"componentType":5126,
			"count":2416,
			"max":[
				3.5762786865234375e-07,
				0.260888010263443,
				3.725290298461914e-07
			],
			"min":[
				-3.5762786865234375e-07,
				-0.25552573800086975,
				-3.5762786865234375e-07
			],
			"type":"VEC3"
		},
		{
			"componentType":5126,
			"count":2416,
			"sparse":{
				"count":1020,
				"indices":{
					"bufferView":36,
					"componentType":5123
				},
				"values":{
					"bufferView":37
				}
			},
			"type":"VEC3"
		},
		{
			"bufferView":38,
			"componentType":5126,
			"count":2416,
			"max":[
				3.5762786865234375e-07,
				0.23900192975997925,
				3.5762786865234375e-07
			],
			"min":[
				-3.5762786865234375e-07,
				-0.23851609230041504,
				-3.5762786865234375e-07
			],
			"type":"VEC3"
		},
		{
			"componentType":5126,
			"count":2416,
			"sparse":{
				"count":1020,
				"indices":{
					"bufferView":39,
					"componentType":5123
				},
				"values":{
					"bufferView":40
				}
			},
			"type":"VEC3"
		},
		{
			"bufferView":41,
			"componentType":5126,
			"count":2416,
			"max":[
				3.5762786865234375e-07,
				0.1982979029417038,
				2.980232238769531e-07
			],
			"min":[
				-3.5762786865234375e-07,
				-0.19809867441654205,
				-2.980232238769531e-07
			],
			"type":"VEC3"
		},
		{
			"componentType":5126,
			"count":2416,
			"sparse":{
				"count":1020,
				"indices":{
					"bufferView":42,
					"componentType":5123
				},
				"values":{
					"bufferView":43
				}
			},
			"type":"VEC3"
		},
		{
			"bufferView":44,
			"componentType":5126,
			"count":2416,
			"max":[
				2.384185791015625e-07,
				0.1491040289402008,
				2.384185791015625e-07
			],
			"min":[
				-2.384185791015625e-07,
				-0.14859282970428467,
				-2.384185791015625e-07
			],
			"type":"VEC3"
		},
		{
			"componentType":5126,
			"count":2416,
			"sparse":{
				"count":1020,
				"indices":{
					"bufferView":45,
					"componentType":5123
				},
				"values":{
					"bufferView":46
				}
			},
			"type":"VEC3"
		},
		{
			"bufferView":47,
			"componentType":5126,
			"count":2416,
			"max":[
				2.384185791015625e-07,
				0.09278744459152222,
				1.7881393432617188e-07
			],
			"min":[
				-2.384185791015625e-07,
				-0.09248829632997513,
				-1.7881393432617188e-07
			],
			"type":"VEC3"
		},
		{
			"componentType":5126,
			"count":2416,
			"sparse":{
				"count":1020,
				"indices":{
					"bufferView":48,
					"componentType":5123
				},
				"values":{
					"bufferView":49
				}
			},
			"type":"VEC3"
		},
		{
			"bufferView":50,
			"componentType":5126,
			"count":2416,
			"max":[
				2.384185791015625e-07,
				0.03238961100578308,
				5.960464477539063e-08
			],
			"min":[
				-1.1920928955078125e-07,
				-0.03239186853170395,
				-1.1920928955078125e-07
			],
			"type":"VEC3"
		},
		{
			"componentType":5126,
			"count":2416,
			"sparse":{
				"count":1020,
				"indices":{
					"bufferView":51,
					"componentType":5123
				},
				"values":{
					"bufferView":52
				}
			},
			"type":"VEC3"
		},
		{
			"bufferView":53,
			"componentType":5126,
			"count":2416,
			"max":[
				1.1920928955078125e-07,
				0.029752016067504883,
				1.1920928955078125e-07
			],
			"min":[
				-2.384185791015625e-07,
				-0.029771968722343445,
				-5.960464477539063e-08
			],
			"type":"VEC3"
		},
		{
			"componentType":5126,
			"count":2416,
			"sparse":{
				"count":1020,
				"indices":{
					"bufferView":54,
					"componentType":5123
				},
				"values":{
					"bufferView":55
				}
			},
			"type":"VEC3"
		},
		{
			"bufferView":56,
			"componentType":5126,
			"count":2416,
			"max":[
				2.384185791015625e-07,
				0.09014735370874405,
				1.7881393432617188e-07
			],
			"min":[
				-2.384185791015625e-07,
				-0.09022602438926697,
				-1.7881393432617188e-07
			],
			"type":"VEC3"
		},
		{
			"componentType":5126,
			"count":2416,
			"sparse":{
				"count":1020,
				"indices":{
					"bufferView":57,
					"componentType":5123
				},
				"values":{
					"bufferView":58
				}
			},
			"type":"VEC3"
		},
		{
			"bufferView":59,
			"componentType":5126,
			"count":2416,
			"max":[
				2.384185791015625e-07,
				0.1466546207666397,
				2.384185791015625e-07
			],
			"min":[
				-2.384185791015625e-07,
				-0.1469011753797531,
				-2.384185791015625e-07
			],
			"type":"VEC3"
		},
		{
			"componentType":5126,
			"count":2416,
			"sparse":{
				"count":1020,
				"indices":{
					"bufferView":60,
					"componentType":5123
				},
				"values":{
					"bufferView":61
				}
			},
			"type":"VEC3"
		},
		{
			"bufferView":62,
			"componentType":5126,
			"count":2416,
			"max":[
				3.5762786865234375e-07,
				0.19631828367710114,
				2.980232238769531e-07
			],
			"min":[
				-4.76837158203125e-07,
				-0.19604331254959106,
				-2.980232238769531e-07
			],
			"type":"VEC3"
		},
		{
			"componentType":5126,
			"count":2416,
			"sparse":{
				"count":1020,
				"indices":{
					"bufferView":63,
					"componentType":5123
				},
				"values":{
					"bufferView":64
				}
			},
			"type":"VEC3"
		},
		{
			"bufferView":65,
			"componentType":5126,
			"count":2416,
			"max":[
				3.5762786865234375e-07,
				0.23695409297943115,
				3.5762786865234375e-07
			],
			"min":[
				-4.76837158203125e-07,
				-0.23280061781406403,
				-3.5762786865234375e-07
			],
			"type":"VEC3"
		},
		{
			"componentType":5126,
			"count":2416,
			"sparse":{
				"count":1020,
				"indices":{
					"bufferView":66,
					"componentType":5123
				},
				"values":{
					"bufferView":67
				}
			},
			"type":"VEC3"
		},
		{
			"bufferView":68,
			"componentType":5126,
			"count":2416,
			"max":[
				3.5762786865234375e-07,
				0.2585289776325226,
				3.5762786865234375e-07
			],
			"min":[
				-3.5762786865234375e-07,
				-0.2517440617084503,
				-3.5762786865234375e-07
			],
			"type":"VEC3"
		},
		{
			"componentType":5126,
			"count":2416,
			"sparse":{
				"count":1020,
				"indices":{
					"bufferView":69,
					"componentType":5123
				},
				"values":{
					"bufferView":70
				}
			},
			"type":"VEC3"
		},
		{
			"bufferView":71,
			"componentType":5126,
			"count":2416,
			"max":[
				3.5762786865234375e-07,
				0.2491578906774521,
				3.5762786865234375e-07
			],
			"min":[
				-3.5762786865234375e-07,
				-0.25124573707580566,
				-3.5762786865234375e-07
			],
			"type":"VEC3"
		},
		{
			"componentType":5126,
			"count":2416,
			"sparse":{
				"count":1020,
				"indices":{
					"bufferView":72,
					"componentType":5123
				},
				"values":{
					"bufferView":73
				}
			},
			"type":"VEC3"
		},
		{
			"bufferView":74,
			"componentType":5126,
			"count":2416,
			"max":[
				3.5762786865234375e-07,
				0.22010226547718048,
				3.5762786865234375e-07
			],
			"min":[
				-3.5762786865234375e-07,
				-0.22025032341480255,
				-3.5762786865234375e-07
			],
			"type":"VEC3"
		},
		{
			"componentType":5126,
			"count":2416,
			"sparse":{
				"count":1020,
				"indices":{
					"bufferView":75,
					"componentType":5123
				},
				"values":{
					"bufferView":76
				}
			},
			"type":"VEC3"
		},
		{
			"bufferView":77,
			"componentType":5126,
			"count":2416,
			"max":[
				3.5762786865234375e-07,
				0.1752200871706009,
				2.980232238769531e-07
			],
			"min":[
				-2.384185791015625e-07,
				-0.17550764977931976,
				-2.980232238769531e-07
			],
			"type":"VEC3"
		},
		{
			"componentType":5126,
			"count":2416,
			"sparse":{
				"count":1020,
				"indices":{
					"bufferView":78,
					"componentType":5123
				},
				"values":{
					"bufferView":79
				}
			},
			"type":"VEC3"
		},
		{
			"bufferView":80,
			"componentType":5126,
			"count":2416,
			"max":[
				2.384185791015625e-07,
				0.12286227196455002,
				1.7881393432617188e-07
			],
			"min":[
				-2.384185791015625e-07,
				-0.12053564190864563,
				-1.7881393432617188e-07
			],
			"type":"VEC3"
		},
		{
			"componentType":5126,
			"count":2416,
			"sparse":{
				"count":1020,
				"indices":{
					"bufferView":81,
					"componentType":5123
				},
				"values":{
					"bufferView":82
				}
			},
			"type":"VEC3"
		},
		{
			"bufferView":83,
			"componentType":5126,
			"count":2416,
			"max":[
				2.384185791015625e-07,
				0.06433122605085373,
				1.1920928955078125e-07
			],
			"min":[
				-1.1920928955078125e-07,
				-0.06434086710214615,
				-1.1920928955078125e-07
			],
			"type":"VEC3"
		},
		{
			"componentType":5126,
			"count":2416,
			"sparse":{
				"count":1020,
				"indices":{
					"bufferView":84,
					"componentType":5123
				},
				"values":{
					"bufferView":85
				}
			},
			"type":"VEC3"
		},
		{
			"bufferView":86,
			"componentType":5126,
			"count":7457,
			"max":[
				5.86326789855957,
				0.5586619973182678,
				5.610779762268066
			],
			"min":[
				-2.746623992919922,
				-0.5586619973182678,
				-1.341380000114441
			],
			"type":"VEC3"
		},
		{
			"bufferView":87,
			"componentType":5126,
			"count":7457,
			"type":"VEC3"
		},
		{
			"bufferView":88,
			"componentType":5126,
			"count":7457,
			"type":"VEC2"
		},
		{
			"bufferView":89,
			"componentType":5123,
			"count":12936,
			"type":"SCALAR"
		},
		{
			"bufferView":90,
			"componentType":5126,
			"count":511,
			"max":[
				226.84921264648438,
				290.5528869628906,
				226.84921264648438
			],
			"min":[
				-226.84921264648438,
				-163.16819763183594,
				-226.84921264648438
			],
			"type":"VEC3"
		},
		{
			"bufferView":91,
			"componentType":5126,
			"count":511,
			"type":"VEC3"
		},
		{
			"bufferView":92,
			"componentType":5126,
			"count":511,
			"type":"VEC2"
		},
		{
			"bufferView":93,
			"componentType":5123,
			"count":2181,
			"type":"SCALAR"
		},
		{
			"bufferView":94,
			"componentType":5126,
			"count":32,
			"max":[
				1,
				0.49062103033065796,
				2
			],
			"min":[
				-1,
				-0.509378969669342,
				-2
			],
			"type":"VEC3"
		},
		{
			"bufferView":95,
			"componentType":5126,
			"count":32,
			"type":"VEC3"
		},
		{
			"bufferView":96,
			"componentType":5126,
			"count":32,
			"type":"VEC2"
		},
		{
			"bufferView":97,
			"componentType":5123,
			"count":60,
			"type":"SCALAR"
		},
		{
			"bufferView":98,
			"componentType":5126,
			"count":916,
			"max":[
				1.090908408164978,
				1.1470478773117065,
				7.62689208984375
			],
			"min":[
				-1.0909072160720825,
				-1.147048830986023,
				-7.3656182289123535
			],
			"type":"VEC3"
		},
		{
			"bufferView":99,
			"componentType":5126,
			"count":916,
			"type":"VEC3"
		},
		{
			"bufferView":100,
			"componentType":5126,
			"count":916,
			"type":"VEC2"
		},
		{
			"bufferView":101,
			"componentType":5123,
			"count":1452,
			"type":"SCALAR"
		},
		{
			"bufferView":102,
			"componentType":5126,
			"count":110,
			"max":[
				-0.019706666469573975,
				1.9895566701889038,
				2
			],
			"min":[
				-1,
				-1.979325532913208,
				-2
			],
			"type":"VEC3"
		},
		{
			"bufferView":103,
			"componentType":5126,
			"count":110,
			"type":"VEC3"
		},
		{
			"bufferView":104,
			"componentType":5126,
			"count":110,
			"type":"VEC2"
		},
		{
			"bufferView":105,
			"componentType":5123,
			"count":264,
			"type":"SCALAR"
		},
		{
			"bufferView":106,
			"componentType":5126,
			"count":8752,
			"max":[
				0.10999999940395355,
				0.1498199999332428,
				0.19070500135421753
			],
			"min":[
				-0.10998599976301193,
				-0.14567899703979492,
				0.003667999990284443
			],
			"type":"VEC3"
		},
		{
			"bufferView":107,
			"componentType":5126,
			"count":8752,
			"type":"VEC3"
		},
		{
			"bufferView":108,
			"componentType":5126,
			"count":8752,
			"type":"VEC2"
		},
		{
			"bufferView":109,
			"componentType":5123,
			"count":27225,
			"type":"SCALAR"
		},
		{
			"bufferView":110,
			"componentType":5126,
			"count":3501,
			"max":[
				1.0180000066757202,
				1.0180000066757202,
				1.017976999282837
			],
			"min":[
				-1.0179990530014038,
				-1.0179749727249146,
				-1.0179719924926758
			],
			"type":"VEC3"
		},
		{
			"bufferView":111,
			"componentType":5126,
			"count":3501,
			"type":"VEC3"
		},
		{
			"bufferView":112,
			"componentType":5126,
			"count":3501,
			"type":"VEC2"
		},
		{
			"bufferView":113,
			"componentType":5123,
			"count":20736,
			"type":"SCALAR"
		},
		{
			"bufferView":114,
			"componentType":5126,
			"count":2570,
			"max":[
				0.9695000052452087,
				0.8240000009536743,
				0.9693999886512756
			],
			"min":[
				-0.9695000052452087,
				-0.8238999843597412,
				-0.9693999886512756
			],
			"type":"VEC3"
		},
		{
			"bufferView":115,
			"componentType":5126,
			"count":2570,
			"type":"VEC3"
		},
		{
			"bufferView":116,
			"componentType":5126,
			"count":2570,
			"type":"VEC2"
		},
		{
			"bufferView":117,
			"componentType":5123,
			"count":15264,
			"type":"SCALAR"
		},
		{
			"bufferView":118,
			"componentType":5126,
			"count":4165,
			"max":[
				0.9218710064888,
				0.6436690092086792,
				0.9214329719543457
			],
			"min":[
				-0.9215430021286011,
				-0.6428700089454651,
				-0.9215070009231567
			],
			"type":"VEC3"
		},
		{
			"bufferView":119,
			"componentType":5126,
			"count":4165,
			"type":"VEC3"
		},
		{
			"bufferView":120,
			"componentType":5126,
			"count":4165,
			"type":"VEC2"
		},
		{
			"bufferView":121,
			"componentType":5123,
			"count":20232,
			"type":"SCALAR"
		},
		{
			"bufferView":122,
			"componentType":5126,
			"count":5583,
			"max":[
				0.8778769969940186,
				0.49332499504089355,
				0.8778809905052185
			],
			"min":[
				-0.8776990175247192,
				-0.49351298809051514,
				-0.8773249983787537
			],
			"type":"VEC3"
		},
		{
			"bufferView":123,
			"componentType":5126,
			"count":5583,
			"type":"VEC3"
		},
		{
			"bufferView":124,
			"componentType":5126,
			"count":5583,
			"type":"VEC2"
		},
		{
			"bufferView":125,
			"componentType":5123,
			"count":30096,
			"type":"SCALAR"
		},
		{
			"bufferView":126,
			"componentType":5126,
			"count":6465,
			"max":[
				0.8357800245285034,
				0.3616180121898651,
				0.8357399702072144
			],
			"min":[
				-0.8357530236244202,
				-0.3614700138568878,
				-0.835552990436554
			],
			"type":"VEC3"
		},
		{
			"bufferView":127,
			"componentType":5126,
			"count":6465,
			"type":"VEC3"
		},
		{
			"bufferView":128,
			"componentType":5126,
			"count":6465,
			"type":"VEC2"
		},
		{
			"bufferView":129,
			"componentType":5123,
			"count":37224,
			"type":"SCALAR"
		},
		{
			"bufferView":130,
			"componentType":5126,
			"count":8308,
			"max":[
				0.7946720123291016,
				0.2428790032863617,
				0.7944009900093079
			],
			"min":[
				-0.7946720123291016,
				-0.24266700446605682,
				-0.7944589853286743
			],
			"type":"VEC3"
		},
		{
			"bufferView":131,
			"componentType":5126,
			"count":8308,
			"type":"VEC3"
		},
		{
			"bufferView":132,
			"componentType":5126,
			"count":8308,
			"type":"VEC2"
		},
		{
			"bufferView":133,
			"componentType":5123,
			"count":48960,
			"type":"SCALAR"
		},
		{
			"bufferView":134,
			"componentType":5126,
			"count":1984,
			"max":[
				0.9999997019767761,
				1,
				0.9999993443489075
			],
			"min":[
				-0.9999990463256836,
				-1,
				-1
			],
			"type":"VEC3"
		},
		{
			"bufferView":135,
			"componentType":5126,
			"count":1984,
			"type":"VEC3"
		},
		{
			"bufferView":136,
			"componentType":5126,
			"count":1984,
			"type":"VEC2"
		},
		{
			"bufferView":137,
			"componentType":5123,
			"count":2880,
			"type":"SCALAR"
		},
		{
			"bufferView":138,
			"componentType":5126,
			"count":23,
			"max":[
				0.9583333333333334
			],
			"min":[
				0.041666666666666664
			],
			"type":"SCALAR"
		},
		{
			"bufferView":139,
			"componentType":5126,
			"count":506,
			"type":"SCALAR"
		}
	],
	"bufferViews":[
		{
			"buffer":0,
			"byteLength":12360,
			"byteOffset":0,
			"target":34962
		},
		{
			"buffer":0,
			"byteLength":12360,
			"byteOffset":12360,
			"target":34962
		},
		{
			"buffer":0,
			"byteLength":8240,
			"byteOffset":24720,
			"target":34962
		},
		{
			"buffer":0,
			"byteLength":7272,
			"byteOffset":32960,
			"target":34963
		},
		{
			"buffer":0,
			"byteLength":792,
			"byteOffset":40232,
			"target":34962
		},
		{
			"buffer":0,
			"byteLength":792,
			"byteOffset":41024,
			"target":34962
		},
		{
			"buffer":0,
			"byteLength":528,
			"byteOffset":41816,
			"target":34962
		},
		{
			"buffer":0,
			"byteLength":384,
			"byteOffset":42344,
			"target":34963
		},
		{
			"buffer":0,
			"byteLength":2112,
			"byteOffset":42728,
			"target":34962
		},
		{
			"buffer":0,
			"byteLength":2112,
			"byteOffset":44840,
			"target":34962
		},
		{
			"buffer":0,
			"byteLength":1408,
			"byteOffset":46952,
			"target":34962
		},
		{
			"buffer":0,
			"byteLength":960,
			"byteOffset":48360,
			"target":34963
		},
		{
			"buffer":0,
			"byteLength":480,
			"byteOffset":49320,
			"target":34962
		},
		{
			"buffer":0,
			"byteLength":480,
			"byteOffset":49800,
			"target":34962
		},
		{
			"buffer":0,
			"byteLength":320,
			"byteOffset":50280,
			"target":34962
		},
		{
			"buffer":0,
			"byteLength":120,
			"byteOffset":50600,
			"target":34963
		},
		{
			"buffer":0,
			"byteLength":28992,
			"byteOffset":50720,
			"target":34962
		},
		{
			"buffer":0,
			"byteLength":28992,
			"byteOffset":79712,
			"target":34962
		},
		{
			"buffer":0,
			"byteLength":28992,
			"byteOffset":108704,
			"target":34962
		},
		{
			"buffer":0,
			"byteLength":11112,
			"byteOffset":137696,
			"target":34963
		},
		{
			"buffer":0,
			"byteLength":28992,
			"byteOffset":148808,
			"target":34962
		},
		{
			"buffer":0,
			"byteLength":2040,
			"byteOffset":177800
		},
		{
			"buffer":0,
			"byteLength":12240,
			"byteOffset":179840
		},
		{
			"buffer":0,
			"byteLength":28992,
			"byteOffset":192080,
			"target":34962
		},
		{
			"buffer":0,
			"byteLength":2040,
			"byteOffset":221072
		},
		{
			"buffer":0,
			"byteLength":12240,
			"byteOffset":223112
		},
		{
			"buffer":0,
			"byteLength":28992,
			"byteOffset":235352,
			"target":34962
		},
		{
			"buffer":0,
			"byteLength":2040,
			"byteOffset":264344
		},
		{
			"buffer":0,
			"byteLength":12240,
			"byteOffset":266384
		},
		{
			"buffer":0,
			"byteLength":28992,
			"byteOffset":278624,
			"target":34962
		},
		{
			"buffer":0,
			"byteLength":2040,
			"byteOffset":307616
		},
		{
			"buffer":0,
			"byteLength":12240,
			"byteOffset":309656
		},
		{
			"buffer":0,
			"byteLength":28992,
			"byteOffset":321896,
			"target":34962
		},
		{
			"buffer":0,
			"byteLength":2040,
			"byteOffset":350888
		},
		{
			"buffer":0,
			"byteLength":12240,
			"byteOffset":352928
		},
		{
			"buffer":0,
			"byteLength":28992,
			"byteOffset":365168,
			"target":34962
		},
		{
			"buffer":0,
			"byteLength":2040,
			"byteOffset":394160
		},
		{
			"buffer":0,
			"byteLength":12240,
			"byteOffset":396200
		},
		{
			"buffer":0,
			"byteLength":28992,
			"byteOffset":408440,
			"target":34962
		},
		{
			"buffer":0,
			"byteLength":2040,
			"byteOffset":437432
		},
		{
			"buffer":0,
			"byteLength":12240,
			"byteOffset":439472
		},
		{
			"buffer":0,
			"byteLength":28992,
			"byteOffset":451712,
			"target":34962
		},
		{
			"buffer":0,
			"byteLength":2040,
			"byteOffset":480704
		},
		{
			"buffer":0,
			"byteLength":12240,
			"byteOffset":482744
		},
		{
			"buffer":0,
			"byteLength":28992,
			"byteOffset":494984,
			"target":34962
		},
		{
			"buffer":0,
			"byteLength":2040,
			"byteOffset":523976
		},
		{
			"buffer":0,
			"byteLength":12240,
			"byteOffset":526016
		},
		{
			"buffer":0,
			"byteLength":28992,
			"byteOffset":538256,
			"target":34962
		},
		{
			"buffer":0,
			"byteLength":2040,
			"byteOffset":567248
		},
		{
			"buffer":0,
			"byteLength":12240,
			"byteOffset":569288
		},
		{
			"buffer":0,
			"byteLength":28992,
			"byteOffset":581528,
			"target":34962
		},
		{
			"buffer":0,
			"byteLength":2040,
			"byteOffset":610520
		},
		{
			"buffer":0,
			"byteLength":12240,
			"byteOffset":612560
		},
		{
			"buffer":0,
			"byteLength":28992,
			"byteOffset":624800,
			"target":34962
		},
		{
			"buffer":0,
			"byteLength":2040,
			"byteOffset":653792
		},
		{
			"buffer":0,
			"byteLength":12240,
			"byteOffset":655832
		},
		{
			"buffer":0,
			"byteLength":28992,
			"byteOffset":668072,
			"target":34962
		},
		{
			"buffer":0,
			"byteLength":2040,
			"byteOffset":697064
		},
		{
			"buffer":0,
			"byteLength":12240,
			"byteOffset":699104
		},
		{
			"buffer":0,
			"byteLength":28992,
			"byteOffset":711344,
			"target":34962
		},
		{
			"buffer":0,
			"byteLength":2040,
			"byteOffset":740336
		},
		{
			"buffer":0,
			"byteLength":12240,
			"byteOffset":742376
		},
		{
			"buffer":0,
			"byteLength":28992,
			"byteOffset":754616,
			"target":34962
		},
		{
			"buffer":0,
			"byteLength":2040,
			"byteOffset":783608
		},
		{
			"buffer":0,
			"byteLength":12240,
			"byteOffset":785648
		},
		{
			"buffer":0,
			"byteLength":28992,
			"byteOffset":797888,
			"target":34962
		},
		{
			"buffer":0,
			"byteLength":2040,
			"byteOffset":826880
		},
		{
			"buffer":0,
			"byteLength":12240,
			"byteOffset":828920
		},
		{
			"buffer":0,
			"byteLength":28992,
			"byteOffset":841160,
			"target":34962
		},
		{
			"buffer":0,
			"byteLength":2040,
			"byteOffset":870152
		},
		{
			"buffer":0,
			"byteLength":12240,
			"byteOffset":872192
		},
		{
			"buffer":0,
			"byteLength":28992,
			"byteOffset":884432,
			"target":34962
		},
		{
			"buffer":0,
			"byteLength":2040,
			"byteOffset":913424
		},
		{
			"buffer":0,
			"byteLength":12240,
			"byteOffset":915464
		},
		{
			"buffer":0,
			"byteLength":28992,
			"byteOffset":927704,
			"target":34962
		},
		{
			"buffer":0,
			"byteLength":2040,
			"byteOffset":956696
		},
		{
			"buffer":0,
			"byteLength":12240,
			"byteOffset":958736
		},
		{
			"buffer":0,
			"byteLength":28992,
			"byteOffset":970976,
			"target":34962
		},
		{
			"buffer":0,
			"byteLength":2040,
			"byteOffset":999968
		},
		{
			"buffer":0,
			"byteLength":12240,
			"byteOffset":1002008
		},
		{
			"buffer":0,
			"byteLength":28992,
			"byteOffset":1014248,
			"target":34962
		},
		{
			"buffer":0,
			"byteLength":2040,
			"byteOffset":1043240
		},
		{
			"buffer":0,
			"byteLength":12240,
			"byteOffset":1045280
		},
		{
			"buffer":0,
			"byteLength":28992,
			"byteOffset":1057520,
			"target":34962
		},
		{
			"buffer":0,
			"byteLength":2040,
			"byteOffset":1086512
		},
		{
			"buffer":0,
			"byteLength":12240,
			"byteOffset":1088552
		},
		{
			"buffer":0,
			"byteLength":89484,
			"byteOffset":1100792,
			"target":34962
		},
		{
			"buffer":0,
			"byteLength":89484,
			"byteOffset":1190276,
			"target":34962
		},
		{
			"buffer":0,
			"byteLength":59656,
			"byteOffset":1279760,
			"target":34962
		},
		{
			"buffer":0,
			"byteLength":25872,
			"byteOffset":1339416,
			"target":34963
		},
		{
			"buffer":0,
			"byteLength":6132,
			"byteOffset":1365288,
			"target":34962
		},
		{
			"buffer":0,
			"byteLength":6132,
			"byteOffset":1371420,
			"target":34962
		},
		{
			"buffer":0,
			"byteLength":4088,
			"byteOffset":1377552,
			"target":34962
		},
		{
			"buffer":0,
			"byteLength":4362,
			"byteOffset":1381640,
			"target":34963
		},
		{
			"buffer":0,
			"byteLength":384,
			"byteOffset":1386004,
			"target":34962
		},
		{
			"buffer":0,
			"byteLength":384,
			"byteOffset":1386388,
			"target":34962
		},
		{
			"buffer":0,
			"byteLength":256,
			"byteOffset":1386772,
			"target":34962
		},
		{
			"buffer":0,
			"byteLength":120,
			"byteOffset":1387028,
			"target":34963
		},
		{
			"buffer":0,
			"byteLength":10992,
			"byteOffset":1387148,
			"target":34962
		},
		{
			"buffer":0,
			"byteLength":10992,
			"byteOffset":1398140,
			"target":34962
		},
		{
			"buffer":0,
			"byteLength":7328,
			"byteOffset":1409132,
			"target":34962
		},
		{
			"buffer":0,
			"byteLength":2904,
			"byteOffset":1416460,
			"target":34963
		},
		{
			"buffer":0,
			"byteLength":1320,
			"byteOffset":1419364,
			"target":34962
		},
		{
			"buffer":0,
			"byteLength":1320,
			"byteOffset":1420684,
			"target":34962
		},
		{
			"buffer":0,
			"byteLength":880,
			"byteOffset":1422004,
			"target":34962
		},
		{
			"buffer":0,
			"byteLength":528,
			"byteOffset":1422884,
			"target":34963
		},
		{
			"buffer":0,
			"byteLength":105024,
			"byteOffset":1423412,
			"target":34962
		},
		{
			"buffer":0,
			"byteLength":105024,
			"byteOffset":1528436,
			"target":34962
		},
		{
			"buffer":0,
			"byteLength":70016,
			"byteOffset":1633460,
			"target":34962
		},
		{
			"buffer":0,
			"byteLength":54450,
			"byteOffset":1703476,
			"target":34963
		},
		{
			"buffer":0,
			"byteLength":42012,
			"byteOffset":1757928,
			"target":34962
		},
		{
			"buffer":0,
			"byteLength":42012,
			"byteOffset":1799940,
			"target":34962
		},
		{
			"buffer":0,
			"byteLength":28008,
			"byteOffset":1841952,
			"target":34962
		},
		{
			"buffer":0,
			"byteLength":41472,
			"byteOffset":1869960,
			"target":34963
		},
		{
			"buffer":0,
			"byteLength":30840,
			"byteOffset":1911432,
			"target":34962
		},
		{
			"buffer":0,
			"byteLength":30840,
			"byteOffset":1942272,
			"target":34962
		},
		{
			"buffer":0,
			"byteLength":20560,
			"byteOffset":1973112,
			"target":34962
		},
		{
			"buffer":0,
			"byteLength":30528,
			"byteOffset":1993672,
			"target":34963
		},
		{
			"buffer":0,
			"byteLength":49980,
			"byteOffset":2024200,
			"target":34962
		},
		{
			"buffer":0,
			"byteLength":49980,
			"byteOffset":2074180,
			"target":34962
		},
		{
			"buffer":0,
			"byteLength":33320,
			"byteOffset":2124160,
			"target":34962
		},
		{
			"buffer":0,
			"byteLength":40464,
			"byteOffset":2157480,
			"target":34963
		},
		{
			"buffer":0,
			"byteLength":66996,
			"byteOffset":2197944,
			"target":34962
		},
		{
			"buffer":0,
			"byteLength":66996,
			"byteOffset":2264940,
			"target":34962
		},
		{
			"buffer":0,
			"byteLength":44664,
			"byteOffset":2331936,
			"target":34962
		},
		{
			"buffer":0,
			"byteLength":60192,
			"byteOffset":2376600,
			"target":34963
		},
		{
			"buffer":0,
			"byteLength":77580,
			"byteOffset":2436792,
			"target":34962
		},
		{
			"buffer":0,
			"byteLength":77580,
			"byteOffset":2514372,
			"target":34962
		},
		{
			"buffer":0,
			"byteLength":51720,
			"byteOffset":2591952,
			"target":34962
		},
		{
			"buffer":0,
			"byteLength":74448,
			"byteOffset":2643672,
			"target":34963
		},
		{
			"buffer":0,
			"byteLength":99696,
			"byteOffset":2718120,
			"target":34962
		},
		{
			"buffer":0,
			"byteLength":99696,
			"byteOffset":2817816,
			"target":34962
		},
		{
			"buffer":0,
			"byteLength":66464,
			"byteOffset":2917512,
			"target":34962
		},
		{
			"buffer":0,
			"byteLength":97920,
			"byteOffset":2983976,
			"target":34963
		},
		{
			"buffer":0,
			"byteLength":23808,
			"byteOffset":3081896,
			"target":34962
		},
		{
			"buffer":0,
			"byteLength":23808,
			"byteOffset":3105704,
			"target":34962
		},
		{
			"buffer":0,
			"byteLength":15872,
			"byteOffset":3129512,
			"target":34962
		},
		{
			"buffer":0,
			"byteLength":5760,
			"byteOffset":3145384,
			"target":34963
		},
		{
			"buffer":0,
			"byteLength":92,
			"byteOffset":3151144
		},
		{
			"buffer":0,
			"byteLength":2024,
			"byteOffset":3151236
		}
	],
	"samplers":[
		{
			"magFilter":9729,
			"minFilter":9987
		}
	],
	"buffers":[
		{
			"byteLength":3153260,
			"uri":"scene.bin"
		}
	]
}
